<?xml version="1.0" encoding="UTF-8" standalone="no"?>
<svg
   xmlns:dc="http://purl.org/dc/elements/1.1/"
   xmlns:cc="http://creativecommons.org/ns#"
   xmlns:rdf="http://www.w3.org/1999/02/22-rdf-syntax-ns#"
   xmlns:svg="http://www.w3.org/2000/svg"
   xmlns="http://www.w3.org/2000/svg"
   xmlns:sodipodi="http://sodipodi.sourceforge.net/DTD/sodipodi-0.dtd"
   xmlns:inkscape="http://www.inkscape.org/namespaces/inkscape"
   sodipodi:docname="phone.svg"
   inkscape:version="1.0 (4035a4fb49, 2020-05-01)"
   id="svg72"
   version="1.1"
   viewBox="0 0 26.414829 35.072529"
   height="35.072529mm"
   width="26.414829mm">
  <defs
     id="defs66" />
  <sodipodi:namedview
     inkscape:window-maximized="1"
     inkscape:window-y="72"
     inkscape:window-x="2048"
     inkscape:window-height="1016"
     inkscape:window-width="1920"
     fit-margin-bottom="0"
     fit-margin-right="0"
     fit-margin-left="0"
     fit-margin-top="0"
     showgrid="false"
     inkscape:document-rotation="0"
     inkscape:current-layer="layer1"
     inkscape:document-units="mm"
     inkscape:cy="-190.915"
     inkscape:cx="-99.214812"
     inkscape:zoom="0.7"
     inkscape:pageshadow="2"
     inkscape:pageopacity="0.0"
     borderopacity="1.0"
     bordercolor="#666666"
     pagecolor="#ffffff"
     id="base" />
  <metadata
     id="metadata69">
    <rdf:RDF>
      <cc:Work
         rdf:about="">
        <dc:format>image/svg+xml</dc:format>
        <dc:type
           rdf:resource="http://purl.org/dc/dcmitype/StillImage" />
        <dc:title></dc:title>
      </cc:Work>
    </rdf:RDF>
  </metadata>
  <g
     transform="translate(-75.616991,-197.53219)"
     id="layer1"
     inkscape:groupmode="layer"
     inkscape:label="Layer 1">
    <g
       transform="matrix(0.88534684,0,0,0.88534684,68.587908,42.231643)"
       id="layer1-5"
       inkscape:label="Calque 1">
      <g
         transform="translate(-6.2815386,166.07813)"
         id="_152222920"
         style="fill:#000000;fill-opacity:1;fill-rule:evenodd;stroke:none">
        <path
           style="fill:#000000;fill-opacity:1;stroke:none"
           inkscape:connector-curvature="0"
           id="_152222248"
           class="fil0"
           d="m 24.186,22.5 c -5.4466,3.1445 2.8637,18.724 8.8237,15.283 1.0584,1.8332 4.4676,7.7381 5.526,9.5712 -2.5146,1.4519 -4.6432,2.3671 -7.5585,0.70054 -8.0946,-4.6273 -17.005,-20.054 -16.751,-29.256 0.08805,-3.196 1.971,-4.4482 4.434,-5.8702 1.0584,1.8332 4.4676,7.738 5.526,9.5712 z" />
        <path
           style="fill:#000000;fill-opacity:1;stroke:none"
           inkscape:connector-curvature="0"
           id="_150519168"
           class="fil0"
           d="m 26.47,22.24 c -0.58849,0.33978 -1.3458,0.13697 -1.6856,-0.45158 l -5.2095,-9.0232 c -0.33984,-0.58862 -0.13704,-1.3459 0.45152,-1.6857 l 2.738,-1.5808 c 0.58855,-0.33984 1.346,-0.13685 1.6858,0.4517 l 5.2095,9.0231 c 0.33978,0.58849 0.13691,1.3458 -0.45158,1.6856 l -2.738,1.5808 z" />
        <path
           style="fill:#000000;fill-opacity:1;stroke:none"
           inkscape:connector-curvature="0"
           id="_226148072"
           class="fil0"
           d="m 40.702,46.89 c -0.58849,0.33978 -1.3458,0.13697 -1.6856,-0.45164 l -5.2095,-9.0232 c -0.33984,-0.58855 -0.13704,-1.3459 0.45152,-1.6856 l 2.738,-1.5808 c 0.58855,-0.33978 1.346,-0.13679 1.6858,0.4517 l 5.2095,9.0231 c 0.33978,0.58855 0.13691,1.3459 -0.45158,1.6856 l -2.738,1.5808 z" />
      </g>
    </g>
  </g>
</svg>
