<?xml version="1.0" encoding="UTF-8" standalone="no"?>
<svg
   xmlns:dc="http://purl.org/dc/elements/1.1/"
   xmlns:cc="http://creativecommons.org/ns#"
   xmlns:rdf="http://www.w3.org/1999/02/22-rdf-syntax-ns#"
   xmlns:svg="http://www.w3.org/2000/svg"
   xmlns="http://www.w3.org/2000/svg"
   xmlns:xlink="http://www.w3.org/1999/xlink"
   xmlns:sodipodi="http://sodipodi.sourceforge.net/DTD/sodipodi-0.dtd"
   xmlns:inkscape="http://www.inkscape.org/namespaces/inkscape"
   inkscape:version="1.0 (4035a4fb49, 2020-05-01)"
   sodipodi:docname="qr-cyber.svg"
   id="svg463"
   version="1.1"
   viewBox="0 0 168 168"
   height="168"
   width="168">
  <metadata
     id="metadata467">
    <rdf:RDF>
      <cc:Work
         rdf:about="">
        <dc:format>image/svg+xml</dc:format>
        <dc:type
           rdf:resource="http://purl.org/dc/dcmitype/StillImage" />
        <dc:title></dc:title>
      </cc:Work>
    </rdf:RDF>
  </metadata>
  <sodipodi:namedview
     inkscape:current-layer="svg463"
     inkscape:window-maximized="1"
     inkscape:window-y="72"
     inkscape:window-x="2048"
     inkscape:cy="97.283029"
     inkscape:cx="69.62846"
     inkscape:zoom="1.8534483"
     fit-margin-bottom="0"
     fit-margin-right="0"
     fit-margin-left="0"
     fit-margin-top="0"
     showgrid="false"
     id="namedview465"
     inkscape:window-height="1016"
     inkscape:window-width="1920"
     inkscape:pageshadow="2"
     inkscape:pageopacity="0"
     guidetolerance="10"
     gridtolerance="10"
     objecttolerance="10"
     borderopacity="1"
     bordercolor="#666666"
     pagecolor="#ffffff" />
  <rect
     id="rect2"
     fill="#ffffff"
     height="232"
     width="232"
     y="-32"
     x="-32" />
  <defs
     id="defs5">
    <rect
       y="0"
       x="0"
       height="8"
       width="8"
       id="p" />
  </defs>
  <g
     transform="translate(-32,-32)"
     id="g459"
     fill="#000000">
    <use
       height="100%"
       width="100%"
       id="use7"
       y="32"
       x="32"
       xlink:href="#p" />
    <use
       height="100%"
       width="100%"
       id="use9"
       y="40"
       x="32"
       xlink:href="#p" />
    <use
       height="100%"
       width="100%"
       id="use11"
       y="48"
       x="32"
       xlink:href="#p" />
    <use
       height="100%"
       width="100%"
       id="use13"
       y="56"
       x="32"
       xlink:href="#p" />
    <use
       height="100%"
       width="100%"
       id="use15"
       y="64"
       x="32"
       xlink:href="#p" />
    <use
       height="100%"
       width="100%"
       id="use17"
       y="72"
       x="32"
       xlink:href="#p" />
    <use
       height="100%"
       width="100%"
       id="use19"
       y="80"
       x="32"
       xlink:href="#p" />
    <use
       height="100%"
       width="100%"
       id="use21"
       y="96"
       x="32"
       xlink:href="#p" />
    <use
       height="100%"
       width="100%"
       id="use23"
       y="104"
       x="32"
       xlink:href="#p" />
    <use
       height="100%"
       width="100%"
       id="use25"
       y="128"
       x="32"
       xlink:href="#p" />
    <use
       height="100%"
       width="100%"
       id="use27"
       y="144"
       x="32"
       xlink:href="#p" />
    <use
       height="100%"
       width="100%"
       id="use29"
       y="152"
       x="32"
       xlink:href="#p" />
    <use
       height="100%"
       width="100%"
       id="use31"
       y="160"
       x="32"
       xlink:href="#p" />
    <use
       height="100%"
       width="100%"
       id="use33"
       y="168"
       x="32"
       xlink:href="#p" />
    <use
       height="100%"
       width="100%"
       id="use35"
       y="176"
       x="32"
       xlink:href="#p" />
    <use
       height="100%"
       width="100%"
       id="use37"
       y="184"
       x="32"
       xlink:href="#p" />
    <use
       height="100%"
       width="100%"
       id="use39"
       y="192"
       x="32"
       xlink:href="#p" />
    <use
       height="100%"
       width="100%"
       id="use41"
       y="32"
       x="40"
       xlink:href="#p" />
    <use
       height="100%"
       width="100%"
       id="use43"
       y="80"
       x="40"
       xlink:href="#p" />
    <use
       height="100%"
       width="100%"
       id="use45"
       y="96"
       x="40"
       xlink:href="#p" />
    <use
       height="100%"
       width="100%"
       id="use47"
       y="104"
       x="40"
       xlink:href="#p" />
    <use
       height="100%"
       width="100%"
       id="use49"
       y="144"
       x="40"
       xlink:href="#p" />
    <use
       height="100%"
       width="100%"
       id="use51"
       y="192"
       x="40"
       xlink:href="#p" />
    <use
       height="100%"
       width="100%"
       id="use53"
       y="32"
       x="48"
       xlink:href="#p" />
    <use
       height="100%"
       width="100%"
       id="use55"
       y="48"
       x="48"
       xlink:href="#p" />
    <use
       height="100%"
       width="100%"
       id="use57"
       y="56"
       x="48"
       xlink:href="#p" />
    <use
       height="100%"
       width="100%"
       id="use59"
       y="64"
       x="48"
       xlink:href="#p" />
    <use
       height="100%"
       width="100%"
       id="use61"
       y="80"
       x="48"
       xlink:href="#p" />
    <use
       height="100%"
       width="100%"
       id="use63"
       y="96"
       x="48"
       xlink:href="#p" />
    <use
       height="100%"
       width="100%"
       id="use65"
       y="112"
       x="48"
       xlink:href="#p" />
    <use
       height="100%"
       width="100%"
       id="use67"
       y="120"
       x="48"
       xlink:href="#p" />
    <use
       height="100%"
       width="100%"
       id="use69"
       y="128"
       x="48"
       xlink:href="#p" />
    <use
       height="100%"
       width="100%"
       id="use71"
       y="144"
       x="48"
       xlink:href="#p" />
    <use
       height="100%"
       width="100%"
       id="use73"
       y="160"
       x="48"
       xlink:href="#p" />
    <use
       height="100%"
       width="100%"
       id="use75"
       y="168"
       x="48"
       xlink:href="#p" />
    <use
       height="100%"
       width="100%"
       id="use77"
       y="176"
       x="48"
       xlink:href="#p" />
    <use
       height="100%"
       width="100%"
       id="use79"
       y="192"
       x="48"
       xlink:href="#p" />
    <use
       height="100%"
       width="100%"
       id="use81"
       y="32"
       x="56"
       xlink:href="#p" />
    <use
       height="100%"
       width="100%"
       id="use83"
       y="48"
       x="56"
       xlink:href="#p" />
    <use
       height="100%"
       width="100%"
       id="use85"
       y="56"
       x="56"
       xlink:href="#p" />
    <use
       height="100%"
       width="100%"
       id="use87"
       y="64"
       x="56"
       xlink:href="#p" />
    <use
       height="100%"
       width="100%"
       id="use89"
       y="80"
       x="56"
       xlink:href="#p" />
    <use
       height="100%"
       width="100%"
       id="use91"
       y="112"
       x="56"
       xlink:href="#p" />
    <use
       height="100%"
       width="100%"
       id="use93"
       y="144"
       x="56"
       xlink:href="#p" />
    <use
       height="100%"
       width="100%"
       id="use95"
       y="160"
       x="56"
       xlink:href="#p" />
    <use
       height="100%"
       width="100%"
       id="use97"
       y="168"
       x="56"
       xlink:href="#p" />
    <use
       height="100%"
       width="100%"
       id="use99"
       y="176"
       x="56"
       xlink:href="#p" />
    <use
       height="100%"
       width="100%"
       id="use101"
       y="192"
       x="56"
       xlink:href="#p" />
    <use
       height="100%"
       width="100%"
       id="use103"
       y="32"
       x="64"
       xlink:href="#p" />
    <use
       height="100%"
       width="100%"
       id="use105"
       y="48"
       x="64"
       xlink:href="#p" />
    <use
       height="100%"
       width="100%"
       id="use107"
       y="56"
       x="64"
       xlink:href="#p" />
    <use
       height="100%"
       width="100%"
       id="use109"
       y="64"
       x="64"
       xlink:href="#p" />
    <use
       height="100%"
       width="100%"
       id="use111"
       y="80"
       x="64"
       xlink:href="#p" />
    <use
       height="100%"
       width="100%"
       id="use113"
       y="96"
       x="64"
       xlink:href="#p" />
    <use
       height="100%"
       width="100%"
       id="use115"
       y="120"
       x="64"
       xlink:href="#p" />
    <use
       height="100%"
       width="100%"
       id="use117"
       y="144"
       x="64"
       xlink:href="#p" />
    <use
       height="100%"
       width="100%"
       id="use119"
       y="160"
       x="64"
       xlink:href="#p" />
    <use
       height="100%"
       width="100%"
       id="use121"
       y="168"
       x="64"
       xlink:href="#p" />
    <use
       height="100%"
       width="100%"
       id="use123"
       y="176"
       x="64"
       xlink:href="#p" />
    <use
       height="100%"
       width="100%"
       id="use125"
       y="192"
       x="64"
       xlink:href="#p" />
    <use
       height="100%"
       width="100%"
       id="use127"
       y="32"
       x="72"
       xlink:href="#p" />
    <use
       height="100%"
       width="100%"
       id="use129"
       y="80"
       x="72"
       xlink:href="#p" />
    <use
       height="100%"
       width="100%"
       id="use131"
       y="96"
       x="72"
       xlink:href="#p" />
    <use
       height="100%"
       width="100%"
       id="use133"
       y="128"
       x="72"
       xlink:href="#p" />
    <use
       height="100%"
       width="100%"
       id="use135"
       y="144"
       x="72"
       xlink:href="#p" />
    <use
       height="100%"
       width="100%"
       id="use137"
       y="192"
       x="72"
       xlink:href="#p" />
    <use
       height="100%"
       width="100%"
       id="use139"
       y="32"
       x="80"
       xlink:href="#p" />
    <use
       height="100%"
       width="100%"
       id="use141"
       y="40"
       x="80"
       xlink:href="#p" />
    <use
       height="100%"
       width="100%"
       id="use143"
       y="48"
       x="80"
       xlink:href="#p" />
    <use
       height="100%"
       width="100%"
       id="use145"
       y="56"
       x="80"
       xlink:href="#p" />
    <use
       height="100%"
       width="100%"
       id="use147"
       y="64"
       x="80"
       xlink:href="#p" />
    <use
       height="100%"
       width="100%"
       id="use149"
       y="72"
       x="80"
       xlink:href="#p" />
    <use
       height="100%"
       width="100%"
       id="use151"
       y="80"
       x="80"
       xlink:href="#p" />
    <use
       height="100%"
       width="100%"
       id="use153"
       y="96"
       x="80"
       xlink:href="#p" />
    <use
       height="100%"
       width="100%"
       id="use155"
       y="112"
       x="80"
       xlink:href="#p" />
    <use
       height="100%"
       width="100%"
       id="use157"
       y="128"
       x="80"
       xlink:href="#p" />
    <use
       height="100%"
       width="100%"
       id="use159"
       y="144"
       x="80"
       xlink:href="#p" />
    <use
       height="100%"
       width="100%"
       id="use161"
       y="152"
       x="80"
       xlink:href="#p" />
    <use
       height="100%"
       width="100%"
       id="use163"
       y="160"
       x="80"
       xlink:href="#p" />
    <use
       height="100%"
       width="100%"
       id="use165"
       y="168"
       x="80"
       xlink:href="#p" />
    <use
       height="100%"
       width="100%"
       id="use167"
       y="176"
       x="80"
       xlink:href="#p" />
    <use
       height="100%"
       width="100%"
       id="use169"
       y="184"
       x="80"
       xlink:href="#p" />
    <use
       height="100%"
       width="100%"
       id="use171"
       y="192"
       x="80"
       xlink:href="#p" />
    <use
       height="100%"
       width="100%"
       id="use173"
       y="96"
       x="88"
       xlink:href="#p" />
    <use
       height="100%"
       width="100%"
       id="use175"
       y="104"
       x="88"
       xlink:href="#p" />
    <use
       height="100%"
       width="100%"
       id="use177"
       y="112"
       x="88"
       xlink:href="#p" />
    <use
       height="100%"
       width="100%"
       id="use179"
       y="128"
       x="88"
       xlink:href="#p" />
    <use
       height="100%"
       width="100%"
       id="use181"
       y="48"
       x="96"
       xlink:href="#p" />
    <use
       height="100%"
       width="100%"
       id="use183"
       y="80"
       x="96"
       xlink:href="#p" />
    <use
       height="100%"
       width="100%"
       id="use185"
       y="88"
       x="96"
       xlink:href="#p" />
    <use
       height="100%"
       width="100%"
       id="use187"
       y="96"
       x="96"
       xlink:href="#p" />
    <use
       height="100%"
       width="100%"
       id="use189"
       y="112"
       x="96"
       xlink:href="#p" />
    <use
       height="100%"
       width="100%"
       id="use191"
       y="128"
       x="96"
       xlink:href="#p" />
    <use
       height="100%"
       width="100%"
       id="use193"
       y="136"
       x="96"
       xlink:href="#p" />
    <use
       height="100%"
       width="100%"
       id="use195"
       y="144"
       x="96"
       xlink:href="#p" />
    <use
       height="100%"
       width="100%"
       id="use197"
       y="152"
       x="96"
       xlink:href="#p" />
    <use
       height="100%"
       width="100%"
       id="use199"
       y="160"
       x="96"
       xlink:href="#p" />
    <use
       height="100%"
       width="100%"
       id="use201"
       y="176"
       x="96"
       xlink:href="#p" />
    <use
       height="100%"
       width="100%"
       id="use203"
       y="184"
       x="96"
       xlink:href="#p" />
    <use
       height="100%"
       width="100%"
       id="use205"
       y="192"
       x="96"
       xlink:href="#p" />
    <use
       height="100%"
       width="100%"
       id="use207"
       y="32"
       x="104"
       xlink:href="#p" />
    <use
       height="100%"
       width="100%"
       id="use209"
       y="40"
       x="104"
       xlink:href="#p" />
    <use
       height="100%"
       width="100%"
       id="use211"
       y="48"
       x="104"
       xlink:href="#p" />
    <use
       height="100%"
       width="100%"
       id="use213"
       y="56"
       x="104"
       xlink:href="#p" />
    <use
       height="100%"
       width="100%"
       id="use215"
       y="88"
       x="104"
       xlink:href="#p" />
    <use
       height="100%"
       width="100%"
       id="use217"
       y="96"
       x="104"
       xlink:href="#p" />
    <use
       height="100%"
       width="100%"
       id="use219"
       y="112"
       x="104"
       xlink:href="#p" />
    <use
       height="100%"
       width="100%"
       id="use221"
       y="136"
       x="104"
       xlink:href="#p" />
    <use
       height="100%"
       width="100%"
       id="use223"
       y="168"
       x="104"
       xlink:href="#p" />
    <use
       height="100%"
       width="100%"
       id="use225"
       y="176"
       x="104"
       xlink:href="#p" />
    <use
       height="100%"
       width="100%"
       id="use227"
       y="192"
       x="104"
       xlink:href="#p" />
    <use
       height="100%"
       width="100%"
       id="use229"
       y="40"
       x="112"
       xlink:href="#p" />
    <use
       height="100%"
       width="100%"
       id="use231"
       y="64"
       x="112"
       xlink:href="#p" />
    <use
       height="100%"
       width="100%"
       id="use233"
       y="80"
       x="112"
       xlink:href="#p" />
    <use
       height="100%"
       width="100%"
       id="use235"
       y="96"
       x="112"
       xlink:href="#p" />
    <use
       height="100%"
       width="100%"
       id="use237"
       y="104"
       x="112"
       xlink:href="#p" />
    <use
       height="100%"
       width="100%"
       id="use239"
       y="128"
       x="112"
       xlink:href="#p" />
    <use
       height="100%"
       width="100%"
       id="use241"
       y="144"
       x="112"
       xlink:href="#p" />
    <use
       height="100%"
       width="100%"
       id="use243"
       y="160"
       x="112"
       xlink:href="#p" />
    <use
       height="100%"
       width="100%"
       id="use245"
       y="168"
       x="112"
       xlink:href="#p" />
    <use
       height="100%"
       width="100%"
       id="use247"
       y="184"
       x="112"
       xlink:href="#p" />
    <use
       height="100%"
       width="100%"
       id="use249"
       y="192"
       x="112"
       xlink:href="#p" />
    <use
       height="100%"
       width="100%"
       id="use251"
       y="32"
       x="120"
       xlink:href="#p" />
    <use
       height="100%"
       width="100%"
       id="use253"
       y="40"
       x="120"
       xlink:href="#p" />
    <use
       height="100%"
       width="100%"
       id="use255"
       y="48"
       x="120"
       xlink:href="#p" />
    <use
       height="100%"
       width="100%"
       id="use257"
       y="56"
       x="120"
       xlink:href="#p" />
    <use
       height="100%"
       width="100%"
       id="use259"
       y="88"
       x="120"
       xlink:href="#p" />
    <use
       height="100%"
       width="100%"
       id="use261"
       y="96"
       x="120"
       xlink:href="#p" />
    <use
       height="100%"
       width="100%"
       id="use263"
       y="136"
       x="120"
       xlink:href="#p" />
    <use
       height="100%"
       width="100%"
       id="use265"
       y="144"
       x="120"
       xlink:href="#p" />
    <use
       height="100%"
       width="100%"
       id="use267"
       y="152"
       x="120"
       xlink:href="#p" />
    <use
       height="100%"
       width="100%"
       id="use269"
       y="160"
       x="120"
       xlink:href="#p" />
    <use
       height="100%"
       width="100%"
       id="use271"
       y="32"
       x="128"
       xlink:href="#p" />
    <use
       height="100%"
       width="100%"
       id="use273"
       y="48"
       x="128"
       xlink:href="#p" />
    <use
       height="100%"
       width="100%"
       id="use275"
       y="64"
       x="128"
       xlink:href="#p" />
    <use
       height="100%"
       width="100%"
       id="use277"
       y="72"
       x="128"
       xlink:href="#p" />
    <use
       height="100%"
       width="100%"
       id="use279"
       y="80"
       x="128"
       xlink:href="#p" />
    <use
       height="100%"
       width="100%"
       id="use281"
       y="88"
       x="128"
       xlink:href="#p" />
    <use
       height="100%"
       width="100%"
       id="use283"
       y="112"
       x="128"
       xlink:href="#p" />
    <use
       height="100%"
       width="100%"
       id="use285"
       y="128"
       x="128"
       xlink:href="#p" />
    <use
       height="100%"
       width="100%"
       id="use287"
       y="152"
       x="128"
       xlink:href="#p" />
    <use
       height="100%"
       width="100%"
       id="use289"
       y="176"
       x="128"
       xlink:href="#p" />
    <use
       height="100%"
       width="100%"
       id="use291"
       y="192"
       x="128"
       xlink:href="#p" />
    <use
       height="100%"
       width="100%"
       id="use293"
       y="96"
       x="136"
       xlink:href="#p" />
    <use
       height="100%"
       width="100%"
       id="use295"
       y="136"
       x="136"
       xlink:href="#p" />
    <use
       height="100%"
       width="100%"
       id="use297"
       y="144"
       x="136"
       xlink:href="#p" />
    <use
       height="100%"
       width="100%"
       id="use299"
       y="152"
       x="136"
       xlink:href="#p" />
    <use
       height="100%"
       width="100%"
       id="use301"
       y="160"
       x="136"
       xlink:href="#p" />
    <use
       height="100%"
       width="100%"
       id="use303"
       y="32"
       x="144"
       xlink:href="#p" />
    <use
       height="100%"
       width="100%"
       id="use305"
       y="40"
       x="144"
       xlink:href="#p" />
    <use
       height="100%"
       width="100%"
       id="use307"
       y="48"
       x="144"
       xlink:href="#p" />
    <use
       height="100%"
       width="100%"
       id="use309"
       y="56"
       x="144"
       xlink:href="#p" />
    <use
       height="100%"
       width="100%"
       id="use311"
       y="64"
       x="144"
       xlink:href="#p" />
    <use
       height="100%"
       width="100%"
       id="use313"
       y="72"
       x="144"
       xlink:href="#p" />
    <use
       height="100%"
       width="100%"
       id="use315"
       y="80"
       x="144"
       xlink:href="#p" />
    <use
       height="100%"
       width="100%"
       id="use317"
       y="96"
       x="144"
       xlink:href="#p" />
    <use
       height="100%"
       width="100%"
       id="use319"
       y="104"
       x="144"
       xlink:href="#p" />
    <use
       height="100%"
       width="100%"
       id="use321"
       y="120"
       x="144"
       xlink:href="#p" />
    <use
       height="100%"
       width="100%"
       id="use323"
       y="128"
       x="144"
       xlink:href="#p" />
    <use
       height="100%"
       width="100%"
       id="use325"
       y="144"
       x="144"
       xlink:href="#p" />
    <use
       height="100%"
       width="100%"
       id="use327"
       y="160"
       x="144"
       xlink:href="#p" />
    <use
       height="100%"
       width="100%"
       id="use329"
       y="168"
       x="144"
       xlink:href="#p" />
    <use
       height="100%"
       width="100%"
       id="use331"
       y="184"
       x="144"
       xlink:href="#p" />
    <use
       height="100%"
       width="100%"
       id="use333"
       y="192"
       x="144"
       xlink:href="#p" />
    <use
       height="100%"
       width="100%"
       id="use335"
       y="32"
       x="152"
       xlink:href="#p" />
    <use
       height="100%"
       width="100%"
       id="use337"
       y="80"
       x="152"
       xlink:href="#p" />
    <use
       height="100%"
       width="100%"
       id="use339"
       y="136"
       x="152"
       xlink:href="#p" />
    <use
       height="100%"
       width="100%"
       id="use341"
       y="144"
       x="152"
       xlink:href="#p" />
    <use
       height="100%"
       width="100%"
       id="use343"
       y="152"
       x="152"
       xlink:href="#p" />
    <use
       height="100%"
       width="100%"
       id="use345"
       y="160"
       x="152"
       xlink:href="#p" />
    <use
       height="100%"
       width="100%"
       id="use347"
       y="168"
       x="152"
       xlink:href="#p" />
    <use
       height="100%"
       width="100%"
       id="use349"
       y="184"
       x="152"
       xlink:href="#p" />
    <use
       height="100%"
       width="100%"
       id="use351"
       y="32"
       x="160"
       xlink:href="#p" />
    <use
       height="100%"
       width="100%"
       id="use353"
       y="48"
       x="160"
       xlink:href="#p" />
    <use
       height="100%"
       width="100%"
       id="use355"
       y="56"
       x="160"
       xlink:href="#p" />
    <use
       height="100%"
       width="100%"
       id="use357"
       y="64"
       x="160"
       xlink:href="#p" />
    <use
       height="100%"
       width="100%"
       id="use359"
       y="80"
       x="160"
       xlink:href="#p" />
    <use
       height="100%"
       width="100%"
       id="use361"
       y="112"
       x="160"
       xlink:href="#p" />
    <use
       height="100%"
       width="100%"
       id="use363"
       y="128"
       x="160"
       xlink:href="#p" />
    <use
       height="100%"
       width="100%"
       id="use365"
       y="152"
       x="160"
       xlink:href="#p" />
    <use
       height="100%"
       width="100%"
       id="use367"
       y="176"
       x="160"
       xlink:href="#p" />
    <use
       height="100%"
       width="100%"
       id="use369"
       y="184"
       x="160"
       xlink:href="#p" />
    <use
       height="100%"
       width="100%"
       id="use371"
       y="192"
       x="160"
       xlink:href="#p" />
    <use
       height="100%"
       width="100%"
       id="use373"
       y="32"
       x="168"
       xlink:href="#p" />
    <use
       height="100%"
       width="100%"
       id="use375"
       y="48"
       x="168"
       xlink:href="#p" />
    <use
       height="100%"
       width="100%"
       id="use377"
       y="56"
       x="168"
       xlink:href="#p" />
    <use
       height="100%"
       width="100%"
       id="use379"
       y="64"
       x="168"
       xlink:href="#p" />
    <use
       height="100%"
       width="100%"
       id="use381"
       y="80"
       x="168"
       xlink:href="#p" />
    <use
       height="100%"
       width="100%"
       id="use383"
       y="104"
       x="168"
       xlink:href="#p" />
    <use
       height="100%"
       width="100%"
       id="use385"
       y="112"
       x="168"
       xlink:href="#p" />
    <use
       height="100%"
       width="100%"
       id="use387"
       y="136"
       x="168"
       xlink:href="#p" />
    <use
       height="100%"
       width="100%"
       id="use389"
       y="176"
       x="168"
       xlink:href="#p" />
    <use
       height="100%"
       width="100%"
       id="use391"
       y="192"
       x="168"
       xlink:href="#p" />
    <use
       height="100%"
       width="100%"
       id="use393"
       y="32"
       x="176"
       xlink:href="#p" />
    <use
       height="100%"
       width="100%"
       id="use395"
       y="48"
       x="176"
       xlink:href="#p" />
    <use
       height="100%"
       width="100%"
       id="use397"
       y="56"
       x="176"
       xlink:href="#p" />
    <use
       height="100%"
       width="100%"
       id="use399"
       y="64"
       x="176"
       xlink:href="#p" />
    <use
       height="100%"
       width="100%"
       id="use401"
       y="80"
       x="176"
       xlink:href="#p" />
    <use
       height="100%"
       width="100%"
       id="use403"
       y="96"
       x="176"
       xlink:href="#p" />
    <use
       height="100%"
       width="100%"
       id="use405"
       y="104"
       x="176"
       xlink:href="#p" />
    <use
       height="100%"
       width="100%"
       id="use407"
       y="112"
       x="176"
       xlink:href="#p" />
    <use
       height="100%"
       width="100%"
       id="use409"
       y="176"
       x="176"
       xlink:href="#p" />
    <use
       height="100%"
       width="100%"
       id="use411"
       y="32"
       x="184"
       xlink:href="#p" />
    <use
       height="100%"
       width="100%"
       id="use413"
       y="80"
       x="184"
       xlink:href="#p" />
    <use
       height="100%"
       width="100%"
       id="use415"
       y="112"
       x="184"
       xlink:href="#p" />
    <use
       height="100%"
       width="100%"
       id="use417"
       y="136"
       x="184"
       xlink:href="#p" />
    <use
       height="100%"
       width="100%"
       id="use419"
       y="144"
       x="184"
       xlink:href="#p" />
    <use
       height="100%"
       width="100%"
       id="use421"
       y="160"
       x="184"
       xlink:href="#p" />
    <use
       height="100%"
       width="100%"
       id="use423"
       y="168"
       x="184"
       xlink:href="#p" />
    <use
       height="100%"
       width="100%"
       id="use425"
       y="184"
       x="184"
       xlink:href="#p" />
    <use
       height="100%"
       width="100%"
       id="use427"
       y="192"
       x="184"
       xlink:href="#p" />
    <use
       height="100%"
       width="100%"
       id="use429"
       y="32"
       x="192"
       xlink:href="#p" />
    <use
       height="100%"
       width="100%"
       id="use431"
       y="40"
       x="192"
       xlink:href="#p" />
    <use
       height="100%"
       width="100%"
       id="use433"
       y="48"
       x="192"
       xlink:href="#p" />
    <use
       height="100%"
       width="100%"
       id="use435"
       y="56"
       x="192"
       xlink:href="#p" />
    <use
       height="100%"
       width="100%"
       id="use437"
       y="64"
       x="192"
       xlink:href="#p" />
    <use
       height="100%"
       width="100%"
       id="use439"
       y="72"
       x="192"
       xlink:href="#p" />
    <use
       height="100%"
       width="100%"
       id="use441"
       y="80"
       x="192"
       xlink:href="#p" />
    <use
       height="100%"
       width="100%"
       id="use443"
       y="104"
       x="192"
       xlink:href="#p" />
    <use
       height="100%"
       width="100%"
       id="use445"
       y="112"
       x="192"
       xlink:href="#p" />
    <use
       height="100%"
       width="100%"
       id="use447"
       y="120"
       x="192"
       xlink:href="#p" />
    <use
       height="100%"
       width="100%"
       id="use449"
       y="128"
       x="192"
       xlink:href="#p" />
    <use
       height="100%"
       width="100%"
       id="use451"
       y="144"
       x="192"
       xlink:href="#p" />
    <use
       height="100%"
       width="100%"
       id="use453"
       y="160"
       x="192"
       xlink:href="#p" />
    <use
       height="100%"
       width="100%"
       id="use455"
       y="176"
       x="192"
       xlink:href="#p" />
    <use
       height="100%"
       width="100%"
       id="use457"
       y="192"
       x="192"
       xlink:href="#p" />
  </g>
  <g
     transform="translate(-32,-32)"
     id="g461" />
</svg>
